<mxfile host="app.diagrams.net" agent="Mozilla/5.0 (Windows NT 10.0; Win64; x64) AppleWebKit/537.36 (KHTML, like Gecko) Chrome/135.0.0.0 Safari/537.36 Edg/135.0.0.0" version="26.2.9">
  <diagram name="Page-1" id="TW9DQ196wyw5phrNLM8j">
    <mxGraphModel>
      <root>
        <mxCell id="0" />
        <mxCell id="1" parent="0" />
        <mxCell id="2" value="Chức năng chính" style="whiteSpace=wrap;strokeWidth=2;" vertex="1" parent="1">
          <mxGeometry x="1133" y="8" width="179" height="54" as="geometry" />
        </mxCell>
        <mxCell id="3" value="Chức năng phụ 1" style="whiteSpace=wrap;strokeWidth=2;" vertex="1" parent="1">
          <mxGeometry x="202" y="112" width="181" height="54" as="geometry" />
        </mxCell>
        <mxCell id="4" value="Chức năng phụ 2" style="whiteSpace=wrap;strokeWidth=2;" vertex="1" parent="1">
          <mxGeometry x="1132" y="112" width="181" height="54" as="geometry" />
        </mxCell>
        <mxCell id="5" value="Chức năng phụ 3" style="whiteSpace=wrap;strokeWidth=2;" vertex="1" parent="1">
          <mxGeometry x="1907" y="112" width="181" height="54" as="geometry" />
        </mxCell>
        <mxCell id="6" value="Chi tiết 1 của Chức năng phụ 1" style="whiteSpace=wrap;strokeWidth=2;" vertex="1" parent="1">
          <mxGeometry x="8" y="216" width="260" height="78" as="geometry" />
        </mxCell>
        <mxCell id="7" value="Chi tiết 2 của Chức năng phụ 1" style="whiteSpace=wrap;strokeWidth=2;" vertex="1" parent="1">
          <mxGeometry x="318" y="216" width="260" height="78" as="geometry" />
        </mxCell>
        <mxCell id="8" value="Chi tiết 3 của Chức năng phụ 1" style="whiteSpace=wrap;strokeWidth=2;" vertex="1" parent="1">
          <mxGeometry x="628" y="216" width="260" height="78" as="geometry" />
        </mxCell>
        <mxCell id="9" value="Chi tiết 1 của Chức năng phụ 2" style="whiteSpace=wrap;strokeWidth=2;" vertex="1" parent="1">
          <mxGeometry x="938" y="216" width="260" height="78" as="geometry" />
        </mxCell>
        <mxCell id="10" value="Chi tiết 2 của Chức năng phụ 2" style="whiteSpace=wrap;strokeWidth=2;" vertex="1" parent="1">
          <mxGeometry x="1248" y="216" width="260" height="78" as="geometry" />
        </mxCell>
        <mxCell id="11" value="Chi tiết 3 của Chức năng phụ 2" style="whiteSpace=wrap;strokeWidth=2;" vertex="1" parent="1">
          <mxGeometry x="1558" y="216" width="260" height="78" as="geometry" />
        </mxCell>
        <mxCell id="12" value="Phân đoạn 2a của Chi tiết 2" style="whiteSpace=wrap;strokeWidth=2;" vertex="1" parent="1">
          <mxGeometry x="1093" y="344" width="260" height="78" as="geometry" />
        </mxCell>
        <mxCell id="13" value="Phân đoạn 2b của Chi tiết 2" style="whiteSpace=wrap;strokeWidth=2;" vertex="1" parent="1">
          <mxGeometry x="1403" y="344" width="260" height="78" as="geometry" />
        </mxCell>
        <mxCell id="14" value="Chi tiết 1 của Chức năng phụ 3" style="whiteSpace=wrap;strokeWidth=2;" vertex="1" parent="1">
          <mxGeometry x="1868" y="216" width="260" height="78" as="geometry" />
        </mxCell>
        <mxCell id="15" value="Chi tiết 2 của Chức năng phụ 3" style="whiteSpace=wrap;strokeWidth=2;" vertex="1" parent="1">
          <mxGeometry x="2178" y="216" width="260" height="78" as="geometry" />
        </mxCell>
        <mxCell id="16" value="Phân đoạn 2a của Chi tiết 2 - Phụ 3" style="whiteSpace=wrap;strokeWidth=2;" vertex="1" parent="1">
          <mxGeometry x="1713" y="344" width="260" height="78" as="geometry" />
        </mxCell>
        <mxCell id="17" value="Phân đoạn 2b của Chi tiết 2 - Phụ 3" style="whiteSpace=wrap;strokeWidth=2;" vertex="1" parent="1">
          <mxGeometry x="2023" y="344" width="260" height="78" as="geometry" />
        </mxCell>
        <mxCell id="18" value="Phân đoạn 2c của Chi tiết 2 - Phụ 3" style="whiteSpace=wrap;strokeWidth=2;" vertex="1" parent="1">
          <mxGeometry x="2333" y="344" width="260" height="78" as="geometry" />
        </mxCell>
        <mxCell id="19" value="" style="curved=1;startArrow=none;endArrow=block;exitX=0;exitY=0.59;entryX=0.5;entryY=0;" edge="1" parent="1" source="2" target="3">
          <mxGeometry relative="1" as="geometry">
            <Array as="points">
              <mxPoint x="293" y="87" />
            </Array>
          </mxGeometry>
        </mxCell>
        <mxCell id="20" value="" style="curved=1;startArrow=none;endArrow=block;exitX=0.5;exitY=1;entryX=0.5;entryY=0;" edge="1" parent="1" source="2" target="4">
          <mxGeometry relative="1" as="geometry">
            <Array as="points" />
          </mxGeometry>
        </mxCell>
        <mxCell id="21" value="" style="curved=1;startArrow=none;endArrow=block;exitX=1;exitY=0.61;entryX=0.5;entryY=0;" edge="1" parent="1" source="2" target="5">
          <mxGeometry relative="1" as="geometry">
            <Array as="points">
              <mxPoint x="1998" y="87" />
            </Array>
          </mxGeometry>
        </mxCell>
        <mxCell id="22" value="" style="curved=1;startArrow=none;endArrow=block;exitX=0.06;exitY=1;entryX=0.5;entryY=0;" edge="1" parent="1" source="3" target="6">
          <mxGeometry relative="1" as="geometry">
            <Array as="points">
              <mxPoint x="138" y="191" />
            </Array>
          </mxGeometry>
        </mxCell>
        <mxCell id="23" value="" style="curved=1;startArrow=none;endArrow=block;exitX=0.95;exitY=1;entryX=0.5;entryY=0;" edge="1" parent="1" source="3" target="7">
          <mxGeometry relative="1" as="geometry">
            <Array as="points">
              <mxPoint x="448" y="191" />
            </Array>
          </mxGeometry>
        </mxCell>
        <mxCell id="24" value="" style="curved=1;startArrow=none;endArrow=block;exitX=1;exitY=0.69;entryX=0.5;entryY=0;" edge="1" parent="1" source="3" target="8">
          <mxGeometry relative="1" as="geometry">
            <Array as="points">
              <mxPoint x="758" y="191" />
            </Array>
          </mxGeometry>
        </mxCell>
        <mxCell id="25" value="" style="curved=1;startArrow=none;endArrow=block;exitX=0.06;exitY=1;entryX=0.5;entryY=0;" edge="1" parent="1" source="4" target="9">
          <mxGeometry relative="1" as="geometry">
            <Array as="points">
              <mxPoint x="1068" y="191" />
            </Array>
          </mxGeometry>
        </mxCell>
        <mxCell id="26" value="" style="curved=1;startArrow=none;endArrow=block;exitX=0.95;exitY=1;entryX=0.5;entryY=0;" edge="1" parent="1" source="4" target="10">
          <mxGeometry relative="1" as="geometry">
            <Array as="points">
              <mxPoint x="1378" y="191" />
            </Array>
          </mxGeometry>
        </mxCell>
        <mxCell id="27" value="" style="curved=1;startArrow=none;endArrow=block;exitX=1;exitY=0.69;entryX=0.5;entryY=0;" edge="1" parent="1" source="4" target="11">
          <mxGeometry relative="1" as="geometry">
            <Array as="points">
              <mxPoint x="1688" y="191" />
            </Array>
          </mxGeometry>
        </mxCell>
        <mxCell id="28" value="" style="curved=1;startArrow=none;endArrow=block;exitX=0.14;exitY=1;entryX=0.5;entryY=0;" edge="1" parent="1" source="10" target="12">
          <mxGeometry relative="1" as="geometry">
            <Array as="points">
              <mxPoint x="1223" y="319" />
            </Array>
          </mxGeometry>
        </mxCell>
        <mxCell id="29" value="" style="curved=1;startArrow=none;endArrow=block;exitX=0.86;exitY=1;entryX=0.5;entryY=0;" edge="1" parent="1" source="10" target="13">
          <mxGeometry relative="1" as="geometry">
            <Array as="points">
              <mxPoint x="1533" y="319" />
            </Array>
          </mxGeometry>
        </mxCell>
        <mxCell id="30" value="" style="curved=1;startArrow=none;endArrow=block;exitX=0.5;exitY=1;entryX=0.5;entryY=0;" edge="1" parent="1" source="5" target="14">
          <mxGeometry relative="1" as="geometry">
            <Array as="points" />
          </mxGeometry>
        </mxCell>
        <mxCell id="31" value="" style="curved=1;startArrow=none;endArrow=block;exitX=1;exitY=0.78;entryX=0.5;entryY=0;" edge="1" parent="1" source="5" target="15">
          <mxGeometry relative="1" as="geometry">
            <Array as="points">
              <mxPoint x="2308" y="191" />
            </Array>
          </mxGeometry>
        </mxCell>
        <mxCell id="32" value="" style="curved=1;startArrow=none;endArrow=block;exitX=0;exitY=0.73;entryX=0.5;entryY=0;" edge="1" parent="1" source="15" target="16">
          <mxGeometry relative="1" as="geometry">
            <Array as="points">
              <mxPoint x="1843" y="319" />
            </Array>
          </mxGeometry>
        </mxCell>
        <mxCell id="33" value="" style="curved=1;startArrow=none;endArrow=block;exitX=0.14;exitY=1;entryX=0.5;entryY=0;" edge="1" parent="1" source="15" target="17">
          <mxGeometry relative="1" as="geometry">
            <Array as="points">
              <mxPoint x="2153" y="319" />
            </Array>
          </mxGeometry>
        </mxCell>
        <mxCell id="34" value="" style="curved=1;startArrow=none;endArrow=block;exitX=0.86;exitY=1;entryX=0.5;entryY=0;" edge="1" parent="1" source="15" target="18">
          <mxGeometry relative="1" as="geometry">
            <Array as="points">
              <mxPoint x="2463" y="319" />
            </Array>
          </mxGeometry>
        </mxCell>
      </root>
    </mxGraphModel>
  </diagram>
</mxfile>
